<svg version="1.2" xmlns="http://www.w3.org/2000/svg" viewBox="0 0 1024 300" width="1024" height="300"><style>.a{fill:#fff;stroke:#000;stroke-width:.4}</style><path fill-rule="evenodd" class="a" d="m174.7 179.8c-7.7 4.8-17 5.2-24.3 1-8.2-4.6-12.9-14-12.9-25.7v-16c-0.6 0.6-1.1 1.6-1.8 2.6l-19.4 31.4c-6.7 10.6-12.9 11.5-16.9 10.3-4.1-1.1-9-5.2-9-17.8v-26.2l-35.4 56.7c12.4 14 30.3 22.8 50.4 22.8 17.1 0 33.7-6.6 46.1-18.4 0.2-0.1 0.2-0.1 0.2-0.1 3.1-2.8 7.8-2.6 10.6 0.5 2.9 3.1 2.8 7.8-0.3 10.7-15.4 14.5-35.3 22.5-56.3 22.5-45.6 0-82.8-37.8-82.8-84.1 0-46.5 37.2-84.1 82.8-84.1 45.5 0 82.7 37.6 82.8 83.8v0.3c0.7 12.9-4.4 23.6-13.8 29.8zm-1.2-29.5v-0.3c0-38-30.5-68.8-67.8-68.8-37.3 0-67.8 30.8-67.8 68.8 0 11.2 2.8 22.3 8 32.3l39.3-62.9c4.7-7.2 9.6-7.7 12.9-6.7 4.9 1.4 7.5 6.2 7.6 14.2v34.7l17.6-28.2c2.8-4.6 10.3-16.8 20.2-13.9 5.9 1.6 9.3 8 9.3 16.8v18.4c0 6.1 2 10.5 5.2 12.4 2.7 1.5 6.1 1.2 9-0.6 4.6-3 6.9-8.8 6.5-16.2zm130.4-29c2 1.2 3.8 3.9 3.8 6.4 0 3.9-3.3 7.1-7 7.1-1 0-1.8-0.3-2.6-0.4-4.4-3.3-10-5.4-15.8-5.4-13.9 0-23.4 11.2-23.4 25.2 0 14.1 9.7 25.1 23.4 25.1 6.8 0 13-2.7 17.6-7.1 1.1-0.8 2.6-1.3 4-1.3 3.8 0 6.7 2.9 6.7 6.6 0 2.5-1.5 4.6-3.2 5.8-6.7 5.7-15.7 9.4-25 9.4-21.2 0-38.5-17.4-38.5-39 0-21.5 17.3-38.9 38.5-38.9 7.8-0.2 15.3 2.3 21.5 6.5zm38.8 16.3c14.5 0 26.6 12.2 26.6 27.4 0 15-12.2 27.9-26.6 27.9-15.1 0-27.7-12.7-27.7-27.9 0-15.2 12.6-27.4 27.7-27.4zm-0.1 41.7c6.3 0 11.7-6 11.7-14.1 0-8.2-5.4-13.4-11.7-13.4-6.9 0-12.6 5-12.6 13.4 0 7.9 5.7 14.1 12.6 14.1zm35.8 5.1v-38.5c0-4.2 3.3-7.6 7.5-7.6 4.1 0 7.5 3.4 7.5 7.6v38.5c0 4.2-3.4 7.7-7.5 7.7-4.1 0-7.5-3.6-7.5-7.7zm-1.1-60.6c0-5.1 3.9-9 8.6-9 4.9 0 8.8 4.1 8.8 9 0 4.8-3.9 8.8-8.8 8.8-4.9-0.2-8.6-4.1-8.6-8.8zm44.8 39.7v20.9c0 4.2-3.4 7.7-7.5 7.7-4.1 0-7.5-3.5-7.5-7.7v-40.3c0-3.2 2.6-5.8 5.9-5.8 3.2 0 5.7 2.7 5.7 5.8 6-5.7 11.4-6.5 16.4-6.5 15 0 21.7 11.3 21.7 24.1v22.7c0 4.2-3.4 7.7-7.5 7.7-4 0-7.5-3.5-7.5-7.7v-20.9c0-6.5-0.8-12-10.2-12-6.7 0-9.5 5.5-9.5 12zm83.3 8c-1.8 0-2.9-0.8-3.9-1.9l-17.5-18.9v33.7c0 4.2-3.4 7.7-7.5 7.7-4 0-7.5-3.5-7.5-7.7v-66.8c0.5-1.2 1.7-2 2.8-2 1.3 0 2.5 1.1 3.3 2l27.9 31.3c0.8 0.9 1.7 1.4 2.4 1.4 0.5 0 1.6-0.5 2.4-1.4l27.9-31.3c0.8-0.9 1.8-2 3.3-2 1.3 0 2.4 0.8 2.7 2v66.8c0 4.2-3.2 7.7-7.5 7.7-4 0-7.4-3.5-7.4-7.7v-33.7l-17.5 18.9c-1.3 1.1-2.4 1.9-3.9 1.9zm88 14.7l-0.3-1.8c-2.9 5.7-12.2 8.3-18.1 8.3-14 0-24.5-12.7-24.5-27.9 0-15 10.6-27.4 25.3-27.4 2.5 0 10.9 0.7 17.5 8.4l0.3-1.8c0-3.3 2.4-5.9 5.7-5.9 3.2 0 5.9 2.8 5.9 5.9v42c0 3.3-2.7 5.9-5.9 5.9-3.4 0.2-5.9-2.6-5.9-5.7zm-16-6.9c6.7 0 12.4-6 12.4-14.1 0-8.2-5.8-13.6-12.4-13.6-6.5 0-11.9 5.6-11.9 13.6 0 7.8 5.3 14.1 11.9 14.1zm69-27.8h-1.6c-9.5 0.5-11.3 5.8-11.3 12v20.9c0 4.2-3.4 7.7-7.5 7.7-4.1 0-7.5-3.5-7.5-7.7v-40.3c0-3.2 2.6-5.8 5.9-5.8 3.2 0 5.7 2.7 5.7 5.8 5.5-5.2 10.1-6.3 14.7-6.5h1.4c3.6 0 6.9 3.1 6.9 7 0.1 3.6-3.1 6.9-6.7 6.9zm57.9 29.3c0.6 1.1 1.1 2.3 1.1 3.6 0 3.9-3.6 7.5-7.5 7.5-2.6 0-4.9-2-6.7-4.2l-17.3-20.1v16.6c0 4.3-3.4 7.7-7.5 7.7-4 0-7.5-3.4-7.5-7.7v-61.1c0-4.2 3.3-7.7 7.5-7.7 4.3 0 7.5 3.5 7.5 7.7v38.1l17.3-19c1.8-2 3.9-4.1 6.5-4.1 3.8 0 7.2 3.4 7.2 7.3 0 1.2-0.3 2.5-1 3.5l-13.7 15zm48.9-11.1h-30.3c0 8.9 8.7 10.4 12.4 10.4 2.8 0 6.7-0.5 9.8-2 1-0.6 2.4-1.1 3.9-1.1 3.3 0 6 2.8 6 6.2 0 2.3-1.4 4.2-3.2 5.4-4.6 3.4-10.6 4.2-16.3 4.2-15.2 0-27.7-8.1-27.7-27.2 0-15 7.6-28 25.6-28 14.5 0 25.4 9.4 25.7 26.2 0 3.1-2.6 5.9-5.9 5.9zm-19.5-18.1c-4.1 0-10.8 2.1-10.8 8.5h21.7c-0.2-6.4-7-8.5-10.9-8.5zm61.3 41.1h-4.1c-11.4 0-18.1-5.1-18.1-22.9v-18.4h-3.9c-3.6 0-6.7-3.2-6.7-6.8 0-3.9 3.3-7 6.7-7h3.9v-14.2c0-4.3 3.3-7.7 7.5-7.7 4.1 0 7.5 3.4 7.5 7.7v14.2h6.2c3.6 0 6.7 3.1 6.7 7 0 3.6-3.3 6.8-6.7 6.8h-6.2v15.5c0 10.3 0.5 12.4 5 12.4h2.2c3.6 0 6.7 2.9 6.7 6.7 0 3.6-3.1 6.7-6.7 6.7zm72.5-71.4c2 1.1 3.8 3.9 3.8 6.3 0 3.9-3.3 7.2-7.1 7.2-0.9 0-1.7-0.3-2.6-0.5-4.4-3.3-9.9-5.4-15.8-5.4-13.8 0-23.3 11.3-23.3 25.3 0 14 9.6 25.1 23.3 25.1 6.9 0 13.1-2.8 17.6-7.2 1.2-0.8 2.6-1.3 4.1-1.3 3.8 0 6.7 2.9 6.7 6.7 0 2.4-1.5 4.6-3.3 5.7-6.7 5.7-15.6 9.5-24.9 9.5-21.2 0-38.5-17.5-38.5-39 0-21.5 17.3-39 38.5-39 7.8-0.1 15.5 2.3 21.5 6.6zm54 64.8l-0.4-1.8c-2.9 5.7-12.2 8.4-18.1 8.4-14 0-24.4-12.8-24.4-27.9 0-15 10.6-27.4 25.3-27.4 2.4 0 10.9 0.6 17.4 8.3l0.3-1.8c0-3.2 2.5-5.9 5.7-5.9 3.3 0 5.9 2.8 5.9 5.9v42.1c0 3.2-2.6 5.8-5.9 5.8-3.4 0.2-5.8-2.6-5.8-5.7zm-16-6.8c6.7 0 12.4-6 12.4-14.2 0-8.1-5.9-13.5-12.4-13.5-6.7 0-11.9 5.5-11.9 13.5 0 7.8 5.4 14.2 11.9 14.2zm56.2 9v19c0 4.3-3.4 7.7-7.5 7.7-4.1 0-7.5-3.4-7.5-7.7v-63.2c0-3.3 2.6-5.9 5.9-5.9 3.2 0 5.7 2.8 5.7 6.5 5.5-5.7 12.4-7.1 17.6-7.1 14.5 0 25.3 12.2 25.3 27.3 0 15-10.3 27.9-24.5 27.9-4.4-0.1-10.9-1.5-15-4.5zm12.4-9c6.7 0 11.9-6.4 11.9-14.2 0-8.1-5.4-13.5-11.9-13.5-6.7 0-12.4 5.4-12.4 13.5 0 8.2 5.7 14.2 12.4 14.2z"/></svg>