<?xml version="1.0" encoding="utf-8"?>
<!-- Generator: Adobe Illustrator 26.0.3, SVG Export Plug-In . SVG Version: 6.00 Build 0)  -->
<svg version="1.0" id="katman_1" xmlns="http://www.w3.org/2000/svg" xmlns:xlink="http://www.w3.org/1999/xlink" x="0px" y="0px"
	 viewBox="0 0 600 450" style="enable-background:new 0 0 600 450;" xml:space="preserve">
<style type="text/css">
	.st0{clip-path:url(#SVGID_00000010301121881606598500000005906418007561437845_);}
	.st1{fill:#60605F;}
	.st2{fill:#414141;}
	.st3{fill:#EDAE4F;}
	.st4{fill:#FDD38C;}
	.st5{fill:#67615A;}
	.st6{fill:#45423D;}
	.st7{fill:#A8A8A8;}
	.st8{fill:#BAE0E0;}
	.st9{fill:#DEF0F5;}
	.st10{fill:#A19D98;}
	.st11{fill:#FBBE50;}
	.st12{fill:#45423E;}
	.st13{fill:#FFFFFF;}
</style>
<g>
	<defs>
		<rect id="SVGID_1_" x="136" y="82.4" width="327.3" height="286.4"/>
	</defs>
	<clipPath id="SVGID_00000068679090228376952520000003814707885422338956_">
		<use xlink:href="#SVGID_1_"  style="overflow:visible;"/>
	</clipPath>
	<g style="clip-path:url(#SVGID_00000068679090228376952520000003814707885422338956_);">
		<path class="st1" d="M437,268.3c1.1,0.9,1.8,1.6,2.8,2.5c0.6,0.5,0.6,0.5,1.3,0c0.4-0.4,0.9-0.8,1.3-1.2c1.8-1.6,4.2-1.5,5.9,0.2
			c0.7,0.7,1.3,1.5,1.9,2.2c1.5,1.9,1.3,4.5-0.3,6.2c-0.5,0.5-1,1-1.5,1.4c-0.4,0.4-0.4,0.7-0.1,1.2c0.6,1,1.2,1.9,1.8,2.9
			c0.7,1.3,1.4,2.6,2,3.9c0.6,1.3,0.6,1.2,1.8,0.8c0.6-0.2,1.2-0.4,1.8-0.5c2-0.4,3.8,0.6,4.7,2.6c0.5,1.2,0.9,2.5,1.1,3.7
			c0.4,1.8-0.7,3.9-2.4,4.8c-0.7,0.3-1.4,0.5-2.1,0.8c-0.8,0.3-0.9,0.4-0.8,1.2c0.4,2.7,0.7,5.4,0.8,8.2c0,0.6,0.2,0.9,0.8,1
			c0.5,0,1,0.1,1.5,0.2c2,0.2,3.4,1.3,4,3.4c0.1,0.2,0.2,4,0,5c-0.4,2.3-2,3.9-4.2,4c-0.5,0-0.9,0-1.4-0.1c-0.9-0.2-1.4,0.2-1.6,1.1
			c-0.5,2.2-1.2,4.3-1.9,6.4c-0.2,0.6-0.1,1.1,0.4,1.6c0.2,0.2,1.2,1.3,1.4,1.7c0.4,0.8-1.2-0.5-1.5-0.7c-0.8-0.5-10.7-6.3-14.4-8.4
			c0.3-2.1,1.2-4.7,1.6-6.8c2-10.4-0.1-19.9-5.7-28.6c-4.7-7.2-11.2-11.8-19.1-14.1c-7-2-13.9-1.6-20.7,1
			c-5.6,2.2-11.8,5.8-15.1,11.4c-0.4,0.5-0.6,0.4-1.2,0.1c-2.1-1.1-10.4-6.8-13.7-8.9c-1.5-1.6-2.5-4.2-1.4-6.1
			c0.8-1.4,1.9-2.5,3-3.5c1.6-1.4,4-1.4,5.7,0c2.1,1.6,2.1,1.6,4.2-0.1c1.1-0.9,2.2-1.7,3.4-2.6c1.1-0.8,1.1-1.1,0.6-2.3
			c-1.4-3.3-0.5-5.9,2.6-7.5c0.8-0.5,1.6-0.8,2.5-1.1c2.3-0.8,4.5,0.1,5.7,2.3c1.3,2.3,1.3,2.3,3.8,1.7c1.3-0.3,2.6-0.5,4-0.8
			c1.3-0.3,1.5-0.5,1.6-1.9c0-0.7,0.1-1.4,0.3-2.1c0.3-1.3,1-2.5,2.3-3.1c2.5-1,5-1.2,7.5,0.1c1.4,0.8,2.1,2.1,2.1,3.9
			c0,2.6,0,2.6,2.5,3.1c1.6,0.3,3.1,0.7,4.7,1.1c1.2,0.3,1.5,0.2,1.9-1c1.2-3.1,4.1-4.6,7.5-2.8c1,0.5,2,0.9,2.8,1.7
			c1.7,1.6,1.8,4.1,1.1,5.8c-0.1,0.2-0.2,0.5-0.3,0.7c-0.5,1.2-0.5,2-0.5,2S435.9,267.5,437,268.3z"/>
		<path class="st2" d="M439.3,323.3c1,1,14.3,8.7,15.4,9.5c0.3,0,0.6,0.3,0.9,0.4l0,0c0.2,0.2,0.5,0.5,0.7,0.7l0,0
			c1.1,1.6,1,3.2,0.4,5c-0.4,0.9-0.9,1.8-1.4,2.6c-1.2,2-3.6,2.6-5.6,1.5c-0.6-0.3-1.2-0.7-1.8-1.1c-0.4-0.3-0.7-0.2-1,0.2
			c-1.6,2.3-3.4,4.4-5.4,6.4c-0.4,0.4-0.4,0.7-0.1,1.2c0.4,0.5,0.7,1.1,1.1,1.6c1.4,2.2,1,4.8-1,6.4c-0.7,0.6-1.4,1.1-2.1,1.6
			c-2,1.4-4.3,1-5.8-0.9c-0.4-0.5-0.8-1.1-1.2-1.7c-0.3-0.5-0.6-0.6-1.2-0.3c-2.2,1.4-4.6,2.4-7,3.4c-0.9,0.3-0.9,0.4-0.7,1.3
			c0.1,0.3,0.1,0.7,0.2,1c0.6,2.9-0.1,4.4-2.4,5.9c-0.6,0.4-1.3,0.3-2,0.5c-1.1,0.3-2.3,0.3-3.5,0.2h0c-0.4-0.2-0.8-0.4-1.1-0.6
			c-1.1-1-1.6-2.3-1.9-3.8c-0.4-2-0.2-1.7-1.9-1.6c-2.3,0.1-4.7,0.1-7,0c-0.9-0.1-0.9-0.1-1.1,0.8c-0.1,0.4-0.2,0.8-0.3,1.2
			c-0.4,2.7-2.4,4.6-5.6,4c-0.8-0.2-1.6-0.4-2.3-0.6c-2.2-0.7-3.5-2.9-3-5.3c0.1-0.6,0.2-1.2,0.4-1.8c0.2-0.8,0.1-0.9-0.6-1.2
			c-1.5-0.6-3-1.2-4.4-1.9c-0.9-0.4-1.7-0.9-2.5-1.4c-0.9-0.5-0.9-0.5-1.5,0.4c-0.3,0.5-0.6,0.9-1,1.4c-1.5,2-3.9,2.4-5.8,1
			c-0.8-0.5-1.5-1.1-2.2-1.7c-1.8-1.5-2.2-4.1-1-6.1c0.4-0.6,0.8-1.2,1.2-1.8c0.3-0.4,0.3-0.7-0.1-1.1c-2-2-3.8-4.1-5.5-6.5
			c-0.3-0.4-0.6-0.4-1-0.2c-0.5,0.3-1,0.6-1.5,0.9c-2.3,1.3-4.7,0.7-6-1.7c-0.5-0.9-1.1-1.6-1.4-2.6c-0.8-2.4-0.1-4.6,1.9-5.9
			c0.4-0.3,0.9-0.5,1.3-0.8c0.8-0.5,0.8-0.5,0.4-1.4c-0.7-1.8-1.3-3.6-1.8-5.5c-0.2-0.8-0.4-1.6-0.6-2.5c-0.1-0.6-0.4-0.8-1-0.7
			c-0.5,0.1-0.9,0.2-1.4,0.2c-2.8,0.3-4.8-1.5-5.1-4.4c-0.1-0.8-0.2-1.6-0.2-2.4c-0.1-1.2,0.3-2.3,1-3.2c0.7-0.9,1.7-1.5,2.8-1.6
			c0.6-0.1,1.2-0.1,1.8-0.2c0.8-0.1,0.8-0.2,0.8-1c0-1.9,0.2-3.9,0.4-5.8c0.1-0.8,0.4-1.7,0.3-2.5c-0.1-0.6-0.3-1-0.7-1.1
			c-0.3-0.1-0.4-0.1-0.8-0.3c-0.9-0.2-1.7-0.6-2.4-1.3"/>
		<path class="st2" d="M359.4,301.2c0.1-0.6-0.1-1.5-0.7-1.7c-0.5-0.1-1.3-0.5-1.8-0.6c-1.9-0.6-3.2-2.2-3.4-4.4
			c-0.2-0.9,0.5-3.9,0.9-4.9c0.8-2.1,2.7-3.4,4.9-3.1c0.5,0.1,0.9,0.2,1.4,0.4c0.8,0.3,1.4,0.1,1.8-0.8c0.9-2,2.2-4,3.1-6.1
			c0.8-2,0.2-1.8,0.5-1.7c0.7,0.6,11,6,14.3,8.8c-2.1,2.4-6.8,13.5-7,17.2"/>
		<path class="st2" d="M380.4,287c6.6-7.6,11.3-10.8,17.8-12.8c4-1.2,8.1-1.6,12.2-1.3c6.9,0.6,13.2,3.2,18.7,7.7
			c4.8,4,8.4,9.1,10.8,15.1c1.5,3.7,2.3,7.5,2.6,11.4c0.5,5.7-0.6,12-2.5,17.3c-0.4,0.3-7.1-4.6-7.8-5.5c-0.2-0.5,0-1,0.2-1.5
			c0.7-2.6,1.1-5.2,1-7.9c-0.4-12.9-8.6-23.5-20.1-26.2c-8.4-1.9-17.4,0-25.6,8.9c-0.2,0.1-0.3-0.1-1.7-1.2
			c-2.3-1.5-3.5-2.5-5.1-3.5C380.1,287,380.2,287.3,380.4,287z"/>
		<path class="st1" d="M440.2,324c-0.2,0.4-0.4,0.8-0.6,1.2c-2,5.2-5.2,9.4-9.2,13c-5.1,4.7-11.1,7.6-17.9,8.6
			c-1.7,0.2-3.3,0.5-5,0.4c-4.8-0.2-9.5-1.1-14-3.2c-2.8-1.3-5.5-3-7.9-5.1c-3.7-3.2-6.8-7.1-9-11.7c-2-4.2-3.2-8.7-3.7-13.4
			c-0.4-4-0.1-8,0.7-12c0.9-4.5,2.6-8.7,5-12.5c0.3-0.5,1.3-1.8,1.6-2.1c1.7,1,6.4,4.3,7.2,5c0.5,0.7-0.4,1.5-0.7,2
			c-1.4,2.2-2.6,4.6-3.4,7.2c-2.7,9.1-1.4,17.5,3.9,25.1c4.5,6.3,10.6,9.8,18.1,10.6c10.6,1.1,21.5-5.3,26-16.6
			c0.2-0.6,0.2-1.6,1.2-1.7C433.3,319.6,439.4,323.5,440.2,324z"/>
		<path class="st3" d="M432.6,318.8c-0.8,2.3-1.8,4.6-3.1,6.6c-4.2,6.5-9.9,10.5-17.2,11.9c-7.4,1.4-14.2-0.3-20.2-5.1
			c-5.3-4.2-8.7-9.8-10-16.6c-1.5-8.1,0.1-15.6,4.6-22.3c0.2-0.3,0.3-0.5,0.5-0.8c0.2-0.2,2.4-2.9,3.5-3.8
			c4.8-4.3,10.4-6.5,16.7-6.7c11.9-0.2,22.6,8.3,25.6,20.7c1.2,5,1.2,9.9-0.1,14.9C432.8,318,432.7,318.4,432.6,318.8z"/>
		<path class="st2" d="M414.8,309.9c0.2,4.2-3.5,7.5-6.9,7.5c-4-0.1-7.2-3.4-7.2-7.6c0-4.1,3.1-7.5,7.2-7.5
			C411.3,302.3,414.9,305.7,414.8,309.9z"/>
		<path class="st4" d="M415.2,295.8c0.8-0.1,1.5,0.2,2,0.9c0.5,0.6,1,1.1,1.5,1.7c1.1,1.3,0.4,3.8-1,4.3c-0.6,0.2-1.2,0.2-1.8-0.2
			c-1.2-0.8-2.2-1.9-3.1-3c-1-1.2-0.5-2.8,1-3.3C414.2,295.9,414.7,295.8,415.2,295.8z"/>
		<path class="st2" d="M224.8,368.2c-2-1.1-3.1-2.8-3.5-5.2c-0.1-0.8-0.3-1.6-0.5-2.4c-0.1-0.6-0.4-0.7-0.9-0.7
			c-3.5,0.3-7,0.3-10.5,0.1c-0.5,0-0.9-0.1-1.4-0.1c-0.4-0.1-0.7,0.1-0.8,0.6c-0.2,0.8-0.4,1.7-0.5,2.5c-0.4,2.6-1.7,4.4-4,5.4
			c-1.5,0.4-2.9,0.3-4.4,0c-1.3-0.3-2.7-0.4-3.9-1.1c-0.5-0.4-1-0.7-1.4-1.1c-1.4-1.6-2-3.5-1.7-5.7c0.1-0.8,0.3-1.7,0.5-2.5
			c0.3-1.4,0.3-1.4-1-1.9c-2.8-1.1-5.6-2.3-8.3-3.8c-0.6-0.3-1.3-0.7-1.9-1.1c-0.5-0.3-0.8-0.2-1.1,0.2c-0.5,0.7-1,1.4-1.5,2.2
			c-2,3.1-5.9,4.1-9,1.5c-0.8-0.7-1.7-1.3-2.5-1.9c-2.9-2.3-3.4-6-1.3-9.1c0.5-0.8,1.1-1.6,1.7-2.4c0.3-0.4,0.3-0.7-0.1-1
			c-0.2-0.2-0.3-0.3-0.5-0.5c-2.7-2.7-5.1-5.6-7.4-8.7c-0.6-0.9-0.6-0.9-1.6-0.3c-0.6,0.4-1.3,0.8-1.9,1.2c-3.3,2-6.6,1.1-8.7-2.3
			c-0.3-0.4-0.4-0.6-0.7-1.1c-0.4-0.7-0.8-1.4-1.1-2.2c-1.4-3.3-0.4-6.7,2.5-8.5c0.7-0.4,1.4-0.9,2.1-1.3c0.9-0.6,0.9-0.6,0.5-1.6
			c-1.3-3.2-2.3-6.6-3.1-10c-0.1-0.6-0.3-1.1-0.4-1.7c-0.1-0.6-0.4-0.8-0.9-0.7c-1,0.1-1.9,0.3-2.9,0.3c-2.5,0.2-4.5-0.9-5.8-3.2
			c-0.5-0.9-0.8-2-0.8-3.1c-0.1-0.8-0.2-1.5-0.3-2.4c-0.2-3.3,1.6-7.4,5.5-7.7c0.8-0.1,1.7-0.2,2.5-0.3c1-0.1,1-0.1,1-1.1
			c0.1-2.9,0.3-5.7,0.7-8.6c0.2-1.1,0.3-2.3,0.5-3.4c0.2-1.1,0.2-1.1-0.8-1.5c-0.8-0.3-1.5-0.5-2.3-0.8c-3.3-1.2-5-4.5-4-8
			c0.3-1.3,0.8-2.6,1.2-3.9c1.1-3.3,4.3-4.9,7.4-3.9c0.9,0.3,1.9,0.6,2.8,1c0.6,0.2,0.8,0,1.1-0.5c0.6-1.3,1.2-2.6,1.8-3.8
			c0.2-0.4,0.4-0.8,0.6-1.2c0.7-1.3,1.4-2.5,2.2-3.7c0.8-0.7,127,78.3,126.7,79.2c-0.2,0.5-0.4,0.9-0.7,1.4
			c-0.4,0.8-0.9,1.7-1.3,2.5c-1.8,3.1-5.1,4.1-8.1,2.4c-0.8-0.4-1.6-1-2.4-1.4c-0.8-0.5-0.8-0.5-1.4,0.3c-1.2,1.7-2.5,3.4-3.9,5
			c-1.2,1.4-2.5,2.8-3.8,4.1c-0.6,0.6-0.6,0.6-0.1,1.3c0.5,0.8,1.1,1.6,1.6,2.4c2,3.1,1.5,6.8-1.3,9c-0.9,0.7-1.8,1.4-2.7,2.1
			c-2.9,2.1-6.4,1.6-8.5-1.4c-0.5-0.8-1.1-1.6-1.6-2.3c-0.5-0.7-0.5-0.7-1.2-0.3c-3,1.7-6,3.2-9.2,4.5c-0.4,0.2-0.9,0.3-1.3,0.5
			c-0.8,0.3-0.8,0.3-0.7,1.3c0.1,0.8,0.3,1.7,0.5,2.5c0.8,3-0.9,6.7-4.8,8C230,368.5,226.4,368.9,224.8,368.2z"/>
		<path class="st5" d="M282.6,326.4c-2.7-1.6-26.3-17.1-27.9-18.1c-0.9-0.5-0.6-0.5-0.1-1.6c1.9-4.4,3.2-9.1,3.9-13.9
			c0.5-3.5,0.4-7,0.2-10.5c-0.3-3.3-0.8-6.6-1.7-9.8c-1.2-4.1-2.8-7.9-4.9-11.5c-2.3-4-5.2-7.5-8.5-10.7c-2.5-2.5-5.3-4.4-8.3-6.2
			c-4.5-2.6-9.3-4.4-14.4-5.2c-3.2-0.5-6.4-0.8-9.6-0.6c-6.8,0.5-13.2,2.4-19.2,5.9c-4.7,2.8-9,6.5-12.5,10.9
			c-0.9,1.1-2.2,3.3-3.1,4.5c-0.5,0.6-9-5.2-20.5-12.4c0.4-0.8,0.8-1.4,1.3-2.1c0.3-0.4,0.3-0.8-0.1-1.1c-0.7-0.7-1.4-1.3-2.1-2
			c-2.2-2.2-2.7-5.1-1.3-7.9c0.3-0.6,0.9-2.2,1.8-3.3c0.4-0.5,0.9-1,1.3-1.5c2.2-2.4,6.5-2.5,8.9-0.2c2.8,2.7,2.4,2.1,4.8,0.2
			c2-1.6,4.1-3.3,6.2-4.7c1.2-0.8,1.2-1.2,0.6-2.5c-0.6-1.5-1.2-3-1.1-4.7c0.2-2.1,1-3.9,2.6-5c2.3-1.7,4.7-3,7.7-2.9
			c2.4,0.1,4.1,1.4,5.3,3.4c0.4,0.8,0.8,1.6,1.1,2.4c0.3,0.8,0.9,1,1.6,0.8c3.1-0.9,6.3-1.5,9.5-2.1c1.2-0.2,1.4-0.6,1.4-1.8
			c0-0.4,0-0.9,0-1.3c-0.2-3.9,2.6-7.2,5.9-7.4c1.9-0.1,3.7-0.3,5.5,0.1c2.7,0.6,5.4,3.2,5.1,6.8c0,0.5,0,1,0,1.5
			c0,1.5,0.3,1.8,1.7,2.1c3,0.4,6,1.1,8.9,1.9c1.5,0.4,1.8,0.3,2.4-1.2c0.5-1.2,1-2.4,1.9-3.4c1.8-1.9,4-2.3,6.4-1.7
			c1.8,0.4,3.6,1.3,5.2,2.4c2.6,1.8,3.5,5,2.5,8.2c-0.2,0.7-0.5,1.3-0.8,1.9c-0.5,1.2-0.5,1.7,0.6,2.4c2.3,1.5,4.5,3.2,6.6,5
			c2.3,2,1.9,2.3,4.4-0.2c2.2-2.1,5.7-2.4,7.7-0.9c2.1,1.5,3.8,3.4,5,5.7c1.1,2.1,0.9,5.9-1.2,7.8c-0.6,0.6-1.2,1.2-1.8,1.9
			c-0.5,0.6-0.6,1.2-0.2,1.8c1.9,2.9,3.6,6,5,9.2c0.4,0.8,1,1,1.7,0.7c0.9-0.3,1.8-0.6,2.7-0.7c2.5-0.5,5.2,0.7,6.5,3
			c1.2,2.3,2,4.7,2.1,7.4c0.1,2.9-1.3,4.9-3.6,6.3c-0.8,0.4-1.6,0.8-2.4,1c-0.9,0.3-1.3,0.8-1.1,1.8c0.6,3.5,0.8,7,1,10.5
			c0.1,0.9,0.5,1.4,1.4,1.5c0.7,0,1.3,0.2,1.9,0.2c3.3,0.5,5.6,3.2,5.6,6.8c0,0.7,0,1.4-0.1,2.1c-0.1,1.1-0.5,2.7-0.8,3.7
			c-0.8,3-3.7,4.6-6.6,4.4c-0.9-0.1-1.9-0.2-2.8-0.3c-0.9-0.1-0.9-0.1-1.1,0.8c-0.6,2.7-1.4,5.5-2.3,8.1c-0.4,1.2-0.9,2.5-1.4,3.7
			c-0.2,0.5-0.1,0.9,0.3,1.1c0.9,0.6,1.8,1.1,2.7,1.7c2.4,1.6,3.3,4.6,2.5,7.4C282.8,326.1,282.7,326.3,282.6,326.4z"/>
		<path class="st3" d="M186.3,265.4c1.1-1.4,2.1-2.8,3.3-4.1c5.6-6.2,12.5-9.8,20.5-10.8c7.1-0.9,13.9,0.5,20.1,4.2
			c9.6,5.7,15.3,14.5,17.1,26.1c1,6.7,0.3,13.3-2.3,19.5c-0.1,0.4-0.2,0.7-0.4,1.1c0.3,0.6,0,1.1-0.2,1.6c-1.2,2.7-2.8,5.1-4.7,7.3
			c-5.3,6.3-11.8,10.5-19.7,11.9c-10.5,1.9-19.9-0.7-28.2-7.9c-6.7-5.8-10.7-13.4-12-22.5c-1-7.1-0.2-14,2.6-20.5
			c0.7-1.6,1.5-3.1,2.3-4.6C185.3,266.1,185.7,265.6,186.3,265.4z"/>
		<path class="st6" d="M192.4,286.2c-0.2-13,10.3-23,21.4-23c10.9-0.1,21.8,9.2,21.8,23.1c0,13-9.9,22.8-21.4,22.9
			C201.7,309.4,192.2,298.3,192.4,286.2z"/>
		<path class="st4" d="M235.3,264.9c0.2,1.9-2.1,3.4-3.7,2.3c-1.1-0.8-2.1-1.5-2.9-2.5c-1.2-1.4-0.9-2.9,0.7-3.9
			c1.2-0.7,2.3-0.7,3.4,0.3c0.8,0.7,1.5,1.4,2.1,2.3C235.1,263.9,235.3,264.4,235.3,264.9z"/>
		<path class="st3" d="M196.8,286.4c-0.3-9.4,6.9-18.6,17.3-18.6c9.7,0,17.3,8.3,17.2,18.7c-0.1,10.2-8.1,18.2-17.5,18.1
			C203.9,304.5,196.5,295.7,196.8,286.4z"/>
		<path class="st2" d="M214,293.7c-3.9,0-7.1-3.4-7.1-7.6c0-4.1,3-7.5,7.1-7.5c3.8,0,7.1,3.3,7,7.6C221.1,290.4,218,293.7,214,293.7
			z"/>
		<path class="st4" d="M222.2,273.7c0.4,0,0.8,0,1.1,0.3c1.5,1.1,2.3,2.5,2.3,4.5c0,1-1.4,2-2.3,1.8c-1.5-0.4-2.8-1.2-3.7-2.7
			c-0.7-1.3-0.6-2.3,0.5-3.2C220.7,274,221.4,273.8,222.2,273.7z"/>
		<path class="st5" d="M186.3,265.4c-1.1,1.9-2.2,3.8-3.1,5.9c-1.5,3.5-2.4,7.1-2.8,10.9c-0.5,4.8-0.2,9.6,1.1,14.2
			c1.3,4.6,3.4,8.9,6.2,12.6c4.3,5.6,9.8,9.5,16.3,11.7c3.8,1.3,7.7,1.8,11.6,1.6c10.3-0.7,18.8-5.4,25.2-14.1
			c1.4-1.8,2.5-3.8,3.5-5.9c0.1-0.3,0.3-0.6,0.5-0.9c0.9,0.4,7.9,5.2,9.1,6.1c0.5,0.3,0.3,0.8,0,1.2c-1.2,2.3-2.5,4.6-4.1,6.7
			c-3.4,4.6-7.4,8.5-12.1,11.6c-4.6,3-9.6,5.1-14.8,6.3c-4.1,0.9-8.2,1-12.3,0.8c-5.5-0.4-10.7-1.8-15.7-4.3
			c-3.4-1.7-6.6-3.8-9.5-6.3c-5.7-5-10.1-11-13-18.3c-1.8-4.7-3-9.6-3.4-14.7c-0.7-7.5,0.5-14.8,3-21.8c0.9-2.6,2.1-5,3.4-7.4
			c0.1-0.2,0.3-0.5,0.4-0.7c0.8-1.2,0.9-1.2,2.1-0.5c2,1.2,5.7,3.7,7.6,4.9C185.9,265.1,186.1,265.2,186.3,265.4z"/>
		<path class="st6" d="M247,293.9c1-4.7,1.1-9.5,0.3-14.2c-0.8-4.7-2.5-9.2-5-13.2c-4.1-5.7-9.3-10.5-15.1-13.4
			c-3.6-1.6-7.5-2.6-11.4-2.7c-10.3-0.4-19.2,3.3-26.4,11.2c-1.1,1.3-2.2,2.6-3.2,4c-0.8-0.5-8.7-4.8-9.8-5.8
			c-0.4-0.4,3-4.5,4.7-6.4c3.8-4.2,8.2-7.7,13.1-10.2c4.7-2.6,10-4,15.4-4.6c4.1-0.5,8.3-0.4,12.4,0.3c5.4,0.9,10.4,3.2,15.1,6.2
			c3.2,2,6.2,4.5,8.9,7.3c5.2,5.6,9,12.1,11.2,19.7c1.4,4.9,2,9.9,2,15c-0.1,7.6-1.9,14.5-4.5,20.1c-0.5,1.1,0,1.1-1.5,0
			c-1.8-1.4-6.4-4.3-8.3-5.6C244.7,301.3,246.3,297.6,247,293.9z"/>
		<path class="st3" d="M199,96.6c-0.8-2.7-1.4-5.4-2.1-8.2c-0.2-0.7,0-0.9,0.7-1.1c39.8-10.3,88.3-2.4,113.2,5.6
			c3.9,1.5,7.8,3.3,11.3,5.6c1.5,1,3,2.2,4.2,3.7c0.3,0.4,0.6,0.9,0.9,1.3c0.6,1.1,0.7,2.3,0.2,3.5c-1.3,2.9-2.7,5.7-4.3,8.5
			c-1,1.8-2,3.6-3,5.4c-0.5,0.9-1,1.7-1.6,2.5c-0.5,0.5-1.1,0.3-1.6,0.1c-2.4-0.6-4.9-1-7.3-1.7c-0.2,0-0.4,0-0.5,0
			c-2.5-0.9-5.2-1-7.8-1.6c-0.3-0.1-0.6,0.1-1,0.1c-4.2-0.9-8.5-1.3-12.8-1.9c-1.5-0.2-3-0.1-4.5-0.7c-0.6-0.6-0.7-1.4-0.8-2.2
			c-1.1-4.6-2.5-9.1-5-13.1c-0.4-0.6-0.8-1.2-1.3-1.8c-1.3-1.7-2.9-2.7-5.1-3c-5.6-0.8-11.3-1.5-16.9-2c-9.4-0.9-18.8-1-28.2-0.9
			c-4.6,0.1-9.3,0.4-13.9,0.8c-3.8,0.3-7.7,0.8-11.5,1.3C199.7,97,199.3,97,199,96.6z"/>
		<path class="st6" d="M331.1,177.6c-2.6,0-5.3-0.1-7.9,0c-0.8,0-1-0.5-1.2-1.2c-0.7-0.2-0.7-0.9-0.8-1.5c-0.9-4.5-1.7-9-2.6-13.4
			c-2.3-11-4.9-21.8-8-32.6c-0.5-1.8-1.1-3.7-1.6-5.5c-0.2-0.6-0.5-1.2,0.1-1.7c0.2-0.2,0.4-0.2,0.7-0.2c2.9,0.6,5.9,1.2,8.8,2
			c1.9,5.7,3.5,11.5,5,17.3c2,7.9,3.7,15.9,5.3,23.9C329.4,167.7,331.1,177.5,331.1,177.6z"/>
		<path class="st6" d="M199,96.6c3.5-0.6,7-1,10.5-1.3c2.5-0.2,5.1-0.4,7.6-0.6c7.1-0.5,14.1-0.5,21.2-0.4
			c5.1,0.1,10.2,0.4,15.4,0.8c3.4,0.3,6.8,0.6,10.2,1c2.9,0.3,5.7,0.9,8.5,1.2c0.9,0.1,1.6,0.6,2.3,1.2c2.3,2.2,3.9,4.9,5.1,7.9
			c1.5,3.5,2.5,7.2,3.2,10.9c-0.2,0.5-0.6,0.5-1,0.5c-1.8-0.1-3.6-0.3-5.4-0.4c-1.6-0.2-3.2-0.2-4.8-0.3c-2.5-0.1-5.1-0.4-7.6-0.3
			c-1,0.1-2-0.2-2.9-0.2c-1.3,0-1.7,0.3-2.2,1.6c-2.7,7.7-5,15.6-6.9,23.6c-3,12.3-5.4,24.8-7.3,37.4c-0.5,3.4-0.9,6.7-1.4,10.1
			c-0.1,0.7-0.2,1.4-0.6,2c-0.3,0.3-0.7,0.4-1.1,0.3c-1.8-0.5-3.6-1.1-5.5-1.6c-0.1,0-0.3-0.1-0.4-0.2c-0.1-0.1-0.2-0.2-0.2-0.4
			c-0.3-0.8-0.1-1.7,0-2.5c1.9-13.6,4.1-27.1,7.1-40.4c2.1-9.4,4.5-18.8,7.6-27.9c0.5-1.4,0.2-1.8-1.2-1.8
			c-5.4-0.1-10.8,0.1-16.2,0.4c-2.7,0.1-5.4,0.3-8.1,0.5c-0.2,0-0.4,0-0.5,0c-2.8,0-2.9,0.1-3.8,2.9c-5.2,16.3-8.8,33-11.6,49.9
			c-0.8,5.1-1.6,10.1-2.3,15.2c-0.1,0.5-0.1,0.9-0.4,1.3c-0.3,0.4-0.7,0.5-1.1,0.6c-2.3,0.3-4.5,0.6-6.8,1c-0.5,0.1-1.1,0.2-1.2-0.7
			c0.4-2.7,0.8-5.3,1.1-8c1-7,2.1-13.9,3.3-20.8c1.6-9.1,3.5-18,5.8-26.9c1.1-4.2,2.2-8.4,3.6-12.5c0.5-1.4,0.5-1.4-0.6-2.4
			c-2.5-2.4-5-4.8-7.5-7.2c-0.5-0.4-0.8-1-0.9-1.6c-0.9-3.5-1.7-7-2.6-10.5C199.1,97.4,199,97,199,96.6L199,96.6z"/>
		<path class="st7" d="M199,96.6c0.1,0.4,0.3,0.7,0.2,1.1C199,97.4,198.7,97,199,96.6z"/>
		<path class="st8" d="M256.9,197.6c-4.2-2.4-8.6-4.3-13.1-5.9c-0.4-0.1-0.8-0.3-1.1-0.6c0.5-3.4,0.9-6.8,1.4-10.2
			c1.2-7.9,2.5-15.7,4.1-23.5c2.4-11.8,5.2-23.5,8.9-34.9c0.6-1.8,1.2-3.6,1.8-5.5c0.3-0.9,0.3-0.9,1.3-0.9
			c5.2,0.2,10.3,0.4,15.5,0.7c2.5,0.2,4.9,0.4,7.4,0.6c4.1,0.4,8.1,0.9,12.2,1.6c1.7,0.3,3.4,0.5,5.1,0.8c1,0.4,1.6,1.2,2.2,2.1
			c2.3,3.5,4.1,7.3,5.5,11.2c1.6,4.1,3,8.2,4,12.5c0.4,1.7,0.9,3.3,1.3,5c1.3,5.5,2.7,11.1,3.7,16.7c0.5,2.9,1.1,5.8,1.8,8.6
			c0.2,0.8,0.5,1.6-0.4,2.2c-0.1,0.1-0.2,0.3-0.3,0.3c-1.6,0.9-2.7,2.4-3.8,3.9c-1.8,2.5-3.5,5.1-5.3,7.6c-0.5,0.2-0.9,0-1.3-0.3
			c-2.1-1.6-4.3-3.2-6.4-4.8c-1.1-0.8-1.2-1.2-0.4-2.4c1-1.7,2.2-3.3,3.3-4.9c0.4-0.6,0.9-1.3,1.2-1.9c0.6-1.2,0.4-2.5-0.6-3.2
			c-0.9-0.7-2.1-0.6-3,0.5c-1.1,1.4-2,2.9-3,4.4c-3.1,4.7-6.2,9.5-9.3,14.2c-0.3,0.4-0.6,0.9-0.8,1.4c-0.5,1.2-0.1,2.3,0.8,3
			c1,0.7,2,0.5,2.8-0.5c1.1-1.4,2-2.9,3-4.4c0.6-1,1.2-1.9,1.9-2.8c0.4-0.7,0.9-0.7,1.6-0.3c2.4,1.6,4.6,3.4,6.9,5.1
			c0.4,0.3,0.8,0.6,0.7,1.2c-0.7,1.2-1.4,2.5-2.2,3.7c-0.4,0.6-0.8,1.2-1.1,1.9c-1.5,2.6-1.5,5.3-0.3,8c3.5,7.2,7.1,14.3,11.1,21.1
			c0.5,0.8,1.1,1.7,1.6,2.5c1.4,2.4,3.6,3.3,6.1,3.4c2.4,0.1,4.9-0.2,7.3-0.4c-0.1,10.8-2.9,20.6-8.4,29.7c-0.8,1.3-1.6,1.8-3.1,1.8
			c-3.9-0.1-7.8,0-11.8,0c-0.8-0.1-0.8-0.9-0.9-1.4c-0.5-2.3-1.1-4.6-1.7-6.8c-2.5-8.7-6.1-17-10.7-24.7c-1.5-2.5-3.2-4.8-4.7-7.2
			c-1.5-2-3-3.9-4.6-5.8c-2.9-3.3-5.9-6.5-9.1-9.4c-4.7-4.2-9.8-7.9-15.1-11.1C258.1,198.8,257.3,198.5,256.9,197.6z"/>
		<path class="st9" d="M318.2,178.3c0.3-0.7,0.3-1.7,0.1-2.3c-1.4-5.7-11.1-45.6-16.6-54.4c-0.7-1.1-0.8-1.3-1.4-1.8
			c2.6,0.2,5.1,0.8,7.7,1.2c0.2,0,0.4,0.1,0.5,0.2c0.2,0.1,0.3,0.3,0.4,0.5c3.4,11.1,6.4,22.4,8.9,33.8c1.5,7,3.1,14.4,4.3,21.4
			c0,0,0,0,0,0c0.2,0.5,0.3,0.4-1.1,0.5C320.1,177.6,318.9,178,318.2,178.3z"/>
		<path class="st8" d="M235.9,189.2c-2.2-0.5-4.5-1-6.7-1.4c-2.7-0.5-5.4-0.8-8.1-1c-2.6-0.2-5.1-0.2-7.7-0.2c-1.4,0-2.9,0.1-4.4,0
			c-0.6-0.5-0.5-1.1-0.4-1.8c1.2-9.5,2.7-18.9,4.5-28.2c1.3-6.6,2.8-13.1,4.6-19.6c1.7-6.2,3.8-12.2,6.9-17.8c0.5-0.8,0.5-1.5,0-2.3
			c0.3-0.1,0.7-0.1,1.1-0.2c8.2-0.4,16.5-0.8,24.7-0.7c0.4,0,0.7-0.1,1.1,0.1c0.1,0.4-0.1,0.8-0.2,1.1c-3.6,10.6-6.4,21.4-8.8,32.4
			c-2,9.3-3.7,18.7-5.1,28.1C236.9,181.6,236.4,185.4,235.9,189.2z"/>
		<path class="st9" d="M225.4,116.8c1.5-0.2,1.3-0.1,0.5,1.5c-2.4,4.3-4.4,8.8-5.9,13.5c-0.9,2.7-1.8,5.5-2.4,8.3
			c-0.7,3.1-1.6,6.1-2.3,9.2c-0.7,3.1-1.3,6.3-1.9,9.4c-0.6,3.2-1.3,6.4-1.8,9.7c-0.8,5-1.5,10.1-2.2,15.1c-0.1,1-0.3,2.1-0.3,3.1
			c-0.4,0.2-2.9,0.5-3.1,0c0.2-2.5,0.6-4.9,1-7.3c0.9-6,1.9-12,3-18c2.6-13.9,5.8-27.5,10.1-40.9c0.3-0.8,0.6-1.7,0.8-2.5
			c0.1-0.5,0.4-0.7,0.9-0.7C222.7,117.1,225.3,116.8,225.4,116.8z"/>
		<path class="st2" d="M361.7,287.2c-2.5-0.2-5.4-2.3-7.4,3.2c-2,5.4,0.9,7.5,0.5,7.4c-0.2,0-0.4,0-0.7,0c-1.7,0-3.4-0.3-5-0.3
			c-0.6-0.3-0.5-0.8-0.4-1.3c0.8-4.3,2.1-8.5,3.8-12.4c2.3-5.2,5-10.1,8.5-14.5c4.8-6.2,10.4-11.3,17-15.2
			c6.8-4.1,14.1-6.7,21.9-7.8c3.7-0.5,7.5-0.7,11.3-0.5c1.4,0.1,2.6-0.5,3.3-1.8c0.3-0.5,0.7-0.9,1.2-1.1c0.6,0,1.2,0.3,1.8,0.4
			c1.3,0.3,1.4,0.3,2-1c0.9-2,1.9-4.1,3.1-5.9c0.3-0.2,0.5-0.5,0.7-0.8c1.6-2.5,3.5-4.6,5.9-6.3c0.1,0,0.1,0,0.2,0
			c0.8,0,1.1,0.7,1.3,1.4c0.9,2.9,1.9,5.8,3.1,8.6c2.1,4.6,4.6,8.9,7.9,12.7c0.5,0.6,1.1,1.1,0.8,2c-1.7,3.2-3.4,6.4-5.1,9.5
			c-0.2,0.5-0.5,0.9-0.8,1.4c-0.5,0.8-1,1.6-1.6,2.3c-0.2-0.1-0.3-0.2-0.5-0.3c-0.1-0.1-0.3-0.2-0.4-0.3c-1.8-1-1.5-1.1-0.6-3
			c0.6-1.2,0.8-2.4,0.5-3.8c-0.1-0.6-0.4-1.1-0.7-1.5c-0.3-0.5-0.8-0.8-1.2-1.1c-1.1-0.7-2.3-1.3-3.6-1.6c-1.8-0.4-3.7,0.5-4.6,2.3
			c-0.3,0.6-0.5,1.2-0.8,1.8c-0.4,0.9-0.6,1-1.5,0.7c-2.2-0.7-4.5-1.2-6.8-1.5c-0.2,0-0.4-0.1-0.6-0.1c-0.6-0.1-0.9-0.5-0.9-1.1
			c0-0.6,0-1.2,0-1.9c0.1-2.3-1.3-3.9-3.3-4.4c-1.5-0.3-3-0.3-4.4,0.1c-1.9,0.4-3,1.7-3.2,3.7c-0.1,0.8-0.2,1.5-0.2,2.3
			c0,1-0.1,1.1-1,1.3c-1.2,0.2-2.4,0.4-3.5,0.7c-1.2,0.2-2.4,0.6-3.6,0.9c-0.8,0.2-1,0.1-1.3-0.6c-0.3-0.7-0.6-1.4-1-2.1
			c-1-1.7-2.8-2.5-4.7-2c-1.3,0.4-2.6,1-3.8,1.8c-1.7,1.2-2.3,3.4-1.6,5.4c0.2,0.6,0.5,1.2,0.8,1.8c0.3,0.8,0.3,0.9-0.3,1.3
			c-2.2,1.4-4.2,3.1-6.3,4.8c-0.6,0.5-0.8,0.5-1.3,0c-0.5-0.5-1-1-1.6-1.4c-1.6-1.2-3.7-1.2-5.2,0.1c-1,0.9-2,1.9-2.7,3.1
			c-1.1,1.9-0.9,4.1,0.7,5.6c0.6,0.6,0.7,0.7,1.7,1.4c-1.5,1.6-4.5,6-5.4,7.7"/>
		<path class="st6" d="M341.4,297.2c-6.1,0-12.2,0-18.3,0c-9.7,0-19.4,0-29.1,0c-2.2,0-2.3-0.1-2-2.4c0.2-1.7,0.3-3.4-0.6-5
			c-1-1.7-2.3-2.7-4.2-3c-0.9-0.2-1.8-0.3-2.7-0.3c-1.1,0-1.3-0.3-1.3-1.5c-0.1-3.8-0.4-7.6-1.1-11.3c-0.3-1.5-0.2-1.6,1.2-2
			c1.1-0.3,2.2-0.7,3.2-1.4c2.5-1.6,3.2-4.3,2.6-7.1c-0.3-1.3-0.7-2.5-1.1-3.8c-1-3.2-3.8-4.9-7-4.3c-1.1,0.2-2.1,0.6-3.2,0.9
			c-0.9,0.3-1,0.3-1.4-0.6c-1.7-3.7-3.6-7.3-5.8-10.6c-0.4-0.6-0.4-0.8,0.2-1.3c0.9-0.7,1.6-1.6,2.4-2.4c2-1.9,1.9-5.8,0.7-7.6
			c-1.1-1.8-2.5-3.3-4-4.6c-1.9-1.7-5.2-1.7-7.4,0.3c-0.7,0.7-1.6,1.3-2.2,2.1c-0.4,0.5-0.7,0.5-1.2,0.1c-1.1-1-2.2-1.9-3.3-2.9
			c-1.8-1.4-3.6-2.7-5.5-4c-1.6-1.1-1.5-0.9-0.7-2.7c0.3-0.7,0.6-1.5,0.9-2.2c0.9-3,0.1-6.2-2.9-7.9c-1.3-0.7-2.6-1.4-4-1.8
			c-2-0.6-3.9-0.5-5.6,0.9c-0.7,0.6-1.3,1.3-1.6,2.1c-0.5,1-0.9,2-1.3,3.1c-0.3,0.8-0.4,0.8-1.2,0.6c-2.9-1-5.9-1.6-8.9-2.2
			c-0.7-0.1-1.4-0.2-2.2-0.3c-1-0.2-1.1-0.2-1.1-1.4c0-1,0-1.9,0-2.9c0-2.7-1.3-4.4-3.5-5.5c-0.6-0.3-1.3-0.5-2-0.6
			c-1.6-0.1-3.3-0.2-4.9,0.1c-3.1,0.6-5,2.9-5.1,6.2c0,0.9,0,1.7,0,2.6c0,1.3-0.1,1.3-1.2,1.5c-3.6,0.6-7.2,1.3-10.8,2.4
			c-0.8,0.3-0.9,0.2-1.3-0.7c-0.4-0.8-0.7-1.7-1.1-2.5c-1.5-3.3-4.8-4.4-7.9-3.2c-1.2,0.4-2.3,1-3.4,1.6c-1.8,1-3,2.5-3.4,4.7
			c-0.2,1.1-0.1,2.3,0.3,3.4c0.3,1,0.8,1.9,1.2,2.9c0.4,0.8,0.3,1-0.4,1.4c-2.9,1.9-5.6,4-8.2,6.3c-0.3,0.3-0.7,0.6-1,0.9
			c-0.6,0.5-0.7,0.5-1.3,0c-0.6-0.6-1.3-1.1-1.9-1.8c-2.2-2.4-6.4-2.3-8.6,0.2c-0.6,0.7-1.2,1.5-1.9,2.2c-0.8,0.9-0.8,0.8-1.7,0
			c-0.7-0.7-2.3-2.2-2.4-2.3c-1.1-1.3-1-1.3,0.1-2.6c9.3-11.2,21.2-19.7,34.4-24.8c6.7-2.6,13.5-4.2,20.6-4.9
			c4.3-0.4,8.6-0.4,13-0.1c5.8,0.4,11.6,1.4,17.3,3c4.6,1.3,9.1,3.1,13.5,5.4c3,1.5,5.8,3.2,8.6,5c3.9,2.6,7.5,5.5,10.9,8.8
			c3.3,3.1,6.3,6.5,9.2,10c0.4,0.5,0.7,1,1.1,1.6c2.7,3.2,4.8,6.8,6.8,10.5c4,7.4,7,15.3,8.9,23.6c0.7,2.9,1.1,5.8,1.6,8.8
			c0.4,2.6,2.2,3.4,4.4,2.2c2.7-1.6,4.4-5.2,4-8.5c-0.1-0.7-0.5-1.5,0.2-2.2c0.6-0.3,1.2-0.3,1.8-0.3c3.3,0,6.5,0,9.8,0
			c1.4,0,2.3-0.5,3-1.7c2.7-4.5,4.8-9.3,6.1-14.4c1.1-4,1.8-8,2.1-12.2c0-0.4,0-0.9,0-1.3c-0.1-0.5,0.1-0.9,0.5-1.2
			c0.7,0,2.3-0.1,2.3-0.1c2.7-0.2,2.7-0.2,2.7,2.7c0,2.2,0,4.4,0,6.6c0,2,0.5,2.6,2.4,3.1c4.4,1.2,8.9,1.6,13.5,1.3
			c2.1-0.1,4.2-0.5,6.3-0.7c0.4-0.1,0.9-0.2,1.3-0.3c1.3-0.5,1.6-1,1.7-2.5c0-2.7,0-5.5,0-8.2c0-0.6-0.1-1.3,0.4-1.7
			c0.8-0.7,1.6-0.2,2.3,0.2c1.8,0.8,3.2,2.3,4.4,3.8c2.3,2.9,4.1,6.2,5.7,9.6c0.1,0.3,0.2,0.6,0.2,0.9c-0.1,0.8-0.6,1.1-1.1,1.5
			c-4.3,2.9-8.1,6.5-11.7,10.4c-4.1,4.5-7.4,9.5-10.3,14.9c-3.3,6.3-5.6,13-6.9,20.1C342.2,296.3,342.3,297.1,341.4,297.2z"/>
		<path class="st10" d="M341.4,297.2c0.3-1.3,0.5-2.6,0.8-4c2.4-10.8,6.9-20.4,13.5-28.9c4.4-5.7,9.6-10.6,15.4-14.6
			c0.3-0.2,0.7-0.4,0.9-0.8c0.3-0.5,20.1-14,42.3-9.7c1.3,1,1.5,3,0.8,4.8c-0.7,1.7-2,2.3-4.1,2.2c-1.9-0.1-3.9-0.2-5.8,0
			c-3.2,0.2-6.4,0.6-9.6,1.3c-8.7,1.9-16.6,5.7-23.7,11.3c-8.3,6.6-14.5,15-18.8,25c-1.7,4.1-3.1,8.4-3.9,12.8
			c-0.1,0.3-0.8,4.5-1,6.4c-0.2,1.7-1,3-2.6,3.5c-2.3,0.8-4.8-1-4.9-3.6c0-1.3,0.2-2.6,0.4-3.9C341.2,298.5,341.3,297.3,341.4,297.2
			z"/>
		<path class="st11" d="M322.5,288.1c-4,0-7.9,0-11.9,0c-1.9,0-3.2-1-4-2.7c-0.8-1.8-0.5-3.5,0.6-5c0.9-1.2,2.1-1.7,3.5-1.7
			c0.9,0,1.9,0,2.8,0c6.7,0,13.4,0,20.1,0c1.3,0,2.4,0.2,3.5,1.1c1.4,1.3,2,3.3,1.4,5.1c-0.3,0.9-0.8,1.7-1.6,2.3
			c-0.7,0.6-1.6,0.9-2.5,0.9C330.4,288.2,326.4,288.2,322.5,288.1L322.5,288.1z"/>
		<path class="st3" d="M197,187.8c0.2,0.2,0.5,0.2,0.8,0.2c2.5-0.5,5-0.8,7.5-1.1c0.2,0,0.1,0,0.7-0.1c8.8-0.7,20.6-0.2,29.8,2.4
			c2,0.6,4.1,1,6.1,1.6c0.2,0,10.2,3.9,14.1,6.1c0.3,0.3,0.5,0.4,0.8,0.6c0.2,1.9-0.4,3.3-1.4,4.6c-1.5,1.8-3.4,3.1-5.5,3.9
			c-2.8-1.3-5.5-2.6-8.4-3.6c-5.1-1.9-10.3-3.2-15.5-4c-4.6-0.7-9.3-1-13.9-0.9c-5.5,0.1-11,0.8-16.3,2.1
			c-16.6,4-31.7,13.3-43.2,26.7c-0.4,0.4-0.7,0.9-1.1,1.3c-0.8,0.9-1.1,1.5-1.7,2.2c-0.9,1.2-1.8,2.4-2.8,3.6c-2.1,2.8-5.9,3-8.2,0
			c-1.6-2-1.3-5,0-6.9c1.4-2,2.9-4,4.5-5.8c1.6-1.9,3.2-3.9,5-5.7c2.5-2.5,5-5,7.7-7.2c9.3-7.6,19.4-13.3,30.6-17c3-1,6-1.8,9-2.4
			C196.1,188.3,196.6,188.3,197,187.8z"/>
		<path class="st3" d="M288.1,225.2c2.7,3.4,4.9,7.2,7,11c2.5,4.5,4.6,9.2,6.4,14.1c1.6,4.5,3,9,3.9,13.7c0.1,0.5,0.2,1,0.4,1.6
			c0.2,1.4,0.5,2.9,0.2,4.4c-0.6,3.1-2,5.4-4.8,6.8c-2.3,1.1-4.3-0.1-4.6-2.7c-1-7-2.6-13.8-5-20.3c-2.9-7.8-6.7-15-11.5-21.6
			c-0.2-0.3-0.4-0.6-0.6-0.9c0.5-1.8,1.6-3.3,2.6-4.9c0.6-0.9,1.5-0.7,2.2-1C285.5,225,286.8,224.6,288.1,225.2z"/>
		<path class="st4" d="M287.5,225.1c-6-0.5-7.9,5.8-8,6.2c-2.6-3.3-5.3-6.5-8.3-9.5c-6-6.1-12.9-11.1-20.3-15
			c-0.3-0.2-0.6-0.3-1-0.5c0.3-0.3,2.7-0.9,4.8-3.8c1.7-2.5,2.1-4.2,2.2-4.7c2,0.8,3.7,2.1,5.4,3.2c3.1,1.9,6,4.1,8.8,6.4
			c2.5,2.1,5,4.3,7.4,6.7c1.6,1.6,3.1,3.3,4.6,5.1c1.8,2,3.6,4,5,6.3"/>
		<path class="st3" d="M442.5,253.8c-0.6-1.1-1.6-2-2.4-3c-4.2-5.5-7.3-11.6-9.4-18.3c-0.2-0.8-0.5-1.5-0.7-2.3
			c-0.1-0.3-0.2-0.7-0.6-0.7c-5.4-4.9-11.9-7.6-18.2-10.6c-9.6-4.5-19.7-7.6-29.8-10.4c-8-2.1-16-3.7-24.1-5.2
			c-0.7-0.1-1.5-0.2-2-0.9c-0.1-0.5-0.1-1.1-0.1-1.6c0-6.4,0-12.8,0-19.2c0-0.7-0.2-1.5,0.5-2c1.6,0.4,3.2,0.4,4.9,0.7
			c3.1,0.5,6.1,0.8,9.2,1.3c4,0.6,7.9,1.2,11.8,2c2.7,0.6,5.4,1.1,8.1,1.7c3.2,0.7,6.3,1.4,9.5,2.3c5.2,1.4,10.4,2.8,15.5,4.7
			c2,0.8,4,1.6,6.1,2.2c2.1,0.7,3.7,2,5.3,3.6c3.4,3.3,6.8,6.7,10,10.2c2.2,2.3,4.4,4.6,6.5,7.1c0.9,1.1,1.9,2,2.8,3
			c1.6,1.8,3.1,3.7,4.8,5.4c1.3,1.4,2.1,3.2,2.2,5.2c0.1,2.8,0.1,5.6-0.6,8.4c-1.2,5.1-3.5,9.6-6.6,13.7
			C444.2,251.9,443.4,252.9,442.5,253.8z"/>
		<path class="st12" d="M306.4,194.1l-7.5-5.5c-0.1-0.1-0.2-0.2-0.4-0.3c-0.5-0.5-0.7-0.3-1,0.2c-0.4,0.7-0.9,1.4-1.4,2.1
			c-1.1,1.6-2.2,3.3-3.3,4.9c-0.8,1.2-1.9,1.6-3,1.2c-1.7-0.6-2.5-2.6-1.7-4.3c0.3-0.5,0.6-1,1-1.5c3.8-5.8,7.7-11.7,11.5-17.5
			c0.2-0.4,0.5-0.8,0.8-1.1c1-1.1,2.5-1.3,3.7-0.5c0.6,0.4,1,1,1.1,1.7c0.2,0.7,0.1,1.4-0.3,2.1c-0.3,0.7-0.8,1.3-1.2,1.9
			c-1.2,1.8-2.4,3.6-3.6,5.4c-0.5,0.7-0.5,0.7,0.2,1.2c2.6,1.9,5.1,3.8,7.7,5.7L306.4,194.1z"/>
		<path class="st3" d="M337.4,178c0.4,0.3,0.3,0.7,0.3,1c0,6.8,0,13.6,0,20.4c0,0.2,0,0.5-0.1,0.7c-0.5,0.6-1.1,0.6-1.7,0.6
			c-2.3,0-4.5-0.1-6.7-0.2c-6.3-0.1-12.6-0.1-18.9,0c-0.4,0-0.9,0-1.3,0.2c-0.2,0.1-0.5,0.3-0.4,0.6c0,0.3,0.3,0.4,0.5,0.5
			c0.2,0,0.4,0.1,0.5,0.1c3.1-0.1,6.2,0.1,9.3-0.1c3-0.2,5.9-0.1,8.9,0.1c2.6,0.2,5.1,0.2,7.7,0.3c0.7,0,1.3,0,1.9,0.4
			c0.3,1.6,0.7,3.1,0.4,4.7c0,0.1,0,0.3-0.1,0.4c-0.5,0.6-1.2,0.6-1.9,0.9c-1.2,0.5-1.8,1.4-1.7,2.8c0.2,6.3-0.3,12.7-0.2,19
			c0,0.7,0,1.5,0.1,2.2c0.2,1.6-0.2,2.1-1.7,2.3c-0.4,0-0.8,0.1-1.2,0.1c-0.7,0-1.4,0-2.1,0c-2,0.3-4.1,0.4-6.2,0.5
			c-3.8,0.3-6.6-1.4-8.6-4.9c-2.8-4.9-5.5-9.7-8.1-14.7c-1.1-2.2-2.2-4.5-3.4-6.7c-1.9-3.6-1.9-7,0.3-10.4c1-1.5,1.7-3.2,2.9-4.5
			c0.6-1.6,1.7-3,2.6-4.4c2.2-3.4,4.4-6.7,6.9-9.8c0.7-1,1.8-1.6,2.8-2.2c1.3-0.4,5.9-0.5,7.1-0.5c1.3,0,2.7,0,4,0
			C330,177,336.2,177.4,337.4,178z"/>
		<path class="st3" d="M415.8,243.3c-0.4-0.2-0.7-0.6-0.6-1.1c0.1-1.6-0.9-2.4-2.1-3c-1.6-0.6-13.9-1.9-26.1,2.7
			c-4.3,1.5-8.4,3.3-12.3,5.8c-0.7,0.5-1.5,0.8-2.2,1.3c-0.1,0.1-0.3,0-0.4,0c-1-1.5-1.6-3.1-2.5-4.6c-1.3-2.3-2.7-4.6-4.6-6.6
			c-1.4-1.6-3-2.7-5.1-3.2c-0.6,0-0.6-0.4-0.7-0.8c-0.1-0.5-0.1-1-0.1-1.5c0-3.5-0.1-7,0-10.5c0.1-3.3-0.3-6.6-0.2-10
			c0-1.3-0.5-2.1-1.6-2.6c-0.4-0.2-0.9-0.4-1.3-0.7c-0.3-0.2-0.6-0.4-0.5-0.9l0-2.5c0.4-0.5,0.9-0.5,1.4-0.4c6,1,12,2.2,18,3.6
			c7.2,1.7,14.3,3.6,21.3,6.1c5.6,2,11.1,4.1,16.5,6.8c2.5,1.2,5.1,2.4,7.5,4.1c0.9,0.6,1.6,1.5,2.2,2.4c1.6,2.1,1.2,4.5,1,6.9
			c0,0.7-0.4,1.4-0.4,2.2c-1.4,2.2-2.5,4.6-3.5,7c-0.2,0.5-0.5,0.7-1,0.5C417.6,243.8,416.7,243.5,415.8,243.3z"/>
		<path class="st4" d="M423,236.6c-0.3-0.6-0.3-1.3-0.1-1.9c0.2-1.3,0.2-2.7,0.2-4c0-1.3-0.7-2.4-1.4-3.3c-0.9-1.2-2.1-2.1-3.4-2.8
			c-6.1-3.3-12.4-6-18.9-8.4c-4.7-1.7-9.4-3.3-14.2-4.6c-6.1-1.6-12.1-3.2-18.3-4.4c-3.5-0.7-7.1-1.3-10.6-2c-0.2,0-0.4,0-0.6-0.1
			c0-0.9,0-1.7,0-2.5c2.2,0.2,4.3,0.7,6.5,1.1c2.8,0.5,5.6,1.1,8.3,1.7c2.9,0.6,5.8,1.3,8.7,2.1c2.2,0.6,4.4,1.2,6.7,1.8
			c5.4,1.5,10.8,3.2,16.1,5.2c4.3,1.6,8.4,3.5,12.6,5.4c4,1.8,7.8,3.9,11.5,6.3c1.1,0.7,2.1,1.5,3.1,2.3c0.4,0.3,0.7,0.6,0.3,1.1
			c-1.4,1.3-2.8,2.6-4,4C424.5,234.5,423.8,235.5,423,236.6z"/>
		<path class="st4" d="M337.4,200.1l0,2.5c-7.3-0.6-20.8-0.6-27.7-0.2c-0.5,0-1-0.1-1.6-0.2c-0.4-0.1-1-0.6-1-0.9
			c0-0.6,0.3-0.9,0.8-1.1c0.5-0.3,1.2-0.3,1.8-0.3c6.5,0,13.1-0.1,19.6,0.1C332.1,200,334.8,200.1,337.4,200.1z"/>
		<path class="st13" d="M449.7,231c0,2.5-0.4,4.8-1.1,7.1c-1.2,4-3.1,7.6-5.6,10.8c-0.5,0.7-0.5,0.7-1,0c-2.4-3-4.3-6.3-6-9.8
			c-1.2-2.6-2.2-5.4-3.1-8.2c-0.3-0.9-0.2-1,0.6-1.5c2.8-1.5,5.8-2.6,9-3.1c1.4-0.2,2.9-0.2,4.3-0.4c0.1,0,0.3,0,0.4,0
			c1.4,0,1.6,0.2,2.1,1.5C449.7,228.7,449.7,229.9,449.7,231z"/>
		<path class="st2" d="M355.4,180.1c0,7.4,0.1,23.6,0.3,28.1c-0.4,0.5-0.9,0.3-1.4,0.2c-5.1-1.6-10.3-1.4-15.4-0.3
			c-0.4,0.1-0.9,0.2-1.2-0.2l0,0c-0.2-0.3,0-36.4,0-38.8c0-1,0.1-1.9,0.6-2.8c0.6-1.1,1.1-2.2,1.6-3.3c0.1-0.1,0.2-0.1,0.3-0.1
			c6,2.7,10.9,5.9,15.4,10.7C355.3,175.5,355.4,177.8,355.4,180.1z"/>
		<path class="st10" d="M340,162.5L340,162.5l-0.2,0c0.4-1.1,0.5-2.2,0.5-3.4c0-3.5,0-7,0-10.4c0-1.3,0.3-2.3,1.1-3.3
			c3.7-4.9,7.7-9.5,11.9-13.8c2.7-2.7,5.6-5.3,8.8-7.4c0.6,0.2,0.3,0.6,0.2,0.9c-1.9,4.6-1.7,9.3-1.1,14.1c0.3,2.1,0.8,4.2,2.4,5.8
			c0.1,0.1,0.2,0.2,0.2,0.4c0,0.2,0,0.3-0.1,0.4c-3.7,1.8-6.6,4.7-9,8.1c-0.4,0.5-0.6,1-0.5,1.7c-0.2,4.1-0.1,8.3,0,15.1
			c0,0.1,0,0.1,0,0.2c-0.5,0.4-0.9-0.1-1.2-0.4c-1.5-1.3-2.9-2.7-4.4-3.9c-1.7-1.3-3.5-2.5-5.4-3.4
			C342.2,162.7,341.1,162.3,340,162.5z"/>
		<path class="st10" d="M364.5,123.7c0.7,0.4,1.1,1,1.3,1.9c0.5,2.1,0.8,4.3,0.9,6.5c0.3,3.7-0.3,7.4-1.1,11
			c-0.2,0.7-0.4,1.5-0.9,2.1c-0.5,0.1-0.6-0.3-0.8-0.6c-2.2-4-2.6-8.3-2.3-12.7c0-0.6,0.1-1.2,0.2-1.8
			C361.9,127.6,362.9,125.3,364.5,123.7z"/>
		<path class="st10" d="M357.8,208.6c1.1,0.5,1.7,1.3,1.7,2.7c0.2,7.3,0.2,14.5,0.2,21.8c0,0.5,0,2.4,0,2.9c0,3-0.1,6,0,9
			c0,1.1-0.4,1.7-1.3,2c-7.2,2.1-16.5,2-23.1-0.2c-1.5-0.5-1.9-1.1-1.9-2.7c0-2.1,0-4.2,0-6.4c0-0.9,0-1.8,0-2.7
			c0-0.9,0.2-14.7,0.2-15.1c0-3.2,0-6.5,0-9.7c0-1,0.3-1.6,1.2-2.1C345.4,204.9,350.8,205.9,357.8,208.6z"/>
		<path class="st6" d="M335.7,227.8v-15.7c0-0.3,0-0.5,0-0.8c0-1.1,0.1-1.2,1.1-1.6c3.7-1.5,14.4-2.9,20.1,1.1c0.9,0.5,1,1,1.1,2.2
			c0.1,2.7-0.1,23.1-0.1,31c0,0.2,0,0.3,0,0.5c0,1.1-0.1,1.2-1.2,1.4c-6.7,1.5-13.3,1.3-19.9-0.5c-1-0.3-1-0.3-1-1.4
			c0-3.6,0-7.2,0-10.8C335.7,231.4,335.7,229.6,335.7,227.8L335.7,227.8z"/>
		<path class="st9" d="M339.8,162.8c0.1-1,0.7-1.1,1.8-0.8c1.3,0.4,2.6,1,3.8,1.8c2.6,1.7,5.1,3.5,7.3,5.8c0.5,0.5,1.1,0.9,1.6,1.4
			c0.1,0.3,0.2,0.6,0.5,0.9c0.7,0.7,0.8,1.4,0.6,2.4c-1.2-0.2-1.8-0.9-2.5-1.8c-2-2.3-4.3-4.2-6.8-5.9c-1.5-1.1-3.8-2.2-5.5-2.9
			C340,163.3,339.7,163.3,339.8,162.8z"/>
		<path class="st9" d="M364.5,123.7c0.4,0.2,0.6,0.3-0.4,1.3c-1.3,1.2-2.1,4.2-2,9.2c0.1,3.3,0.1,6.2,2.6,10.9
			c-0.2,0.3-0.5,0.6-0.9,0.7c-4.2-4.4-3.8-18-1.7-21.6C363,123.2,363.5,123.1,364.5,123.7z"/>
	</g>
</g>
</svg>
