<svg version="1.2" xmlns="http://www.w3.org/2000/svg" viewBox="0 0 333 83" width="333" height="83"><style>.a{fill:#5767ff}.b{fill:#fff}</style><path class="a" d="m0 8c0-4.4 3.6-8 8-8h67.3c4.4 0 8 3.6 8 8v67c0 4.4-3.6 8-8 8h-67.3c-4.4 0-8-3.6-8-8z"/><path class="b" d="m52 23.4c-4.1 0-7.7 1.7-10.4 4.4-2.7-2.7-6.2-4.4-10.4-4.4-8.1 0-14.6 6.5-14.6 14.6v17.2c0 2.3 1.9 4.1 4.2 4.1 2.3 0 4.2-1.8 4.2-4.1v-17.2c0-3.6 2.7-6.3 6.2-6.3 3.6 0 6.3 2.7 6.3 6.3v17.2c0 2.3 1.8 4.1 4.1 4.1 2.3 0 4.2-1.8 4.2-4.1v-17.2c0-3.6 2.7-6.3 6.2-6.3 3.6 0 6.3 2.7 6.3 6.3v17.2c0 2.3 1.8 4.1 4.1 4.1 2.3 0 4.2-1.8 4.2-4.1v-17.2c0-7.9-6.5-14.6-14.6-14.6z"/><path fill-rule="evenodd" class="b" d="m149.8 38.8v13.1c0 1.2-0.8 2.1-2 2.1-1.3 0-2.1-0.9-2.1-2.1v-13.1c0-3.3-2.7-5.8-6.3-5.8-3.5 0-6.2 2.7-6.2 5.8v13.1c0 1.2-0.8 2.1-2.1 2.1-1.2 0-2.1-0.9-2.1-2.1v-13.1c0-3.3-2.7-5.8-6.2-5.8-3.5 0-6.3 2.7-6.3 5.8v13.1c0 1.2-0.8 2.1-2 2.1-1.3 0-2.1-0.9-2.1-2.1v-12.9c0-5.6 4.6-9.9 10.4-9.9 3.3 0 6.4 1.4 8.3 3.9 1.9-2.5 5-3.9 8.3-3.9 5.9 0 10.4 4.3 10.4 9.7zm91.6 0.8c0 1.3-0.8 2.1-2.1 2.1-1.2 0-2-0.8-2-2.1 0-3.5-2.7-6.4-6.3-6.4-3.5 0-6.2 2.9-6.2 6.4v12.3c0 1.2-0.9 2.1-2.1 2.1-1.3 0-2.1-0.9-2.1-2.1v-12.3c0-5.8 4.6-10.5 10.4-10.5 5.8 0 10.4 4.7 10.4 10.5zm-81.1-8.5v20.8c0 1.2-0.9 2.1-2.1 2.1-1.3 0-2.1-0.9-2.1-2.1v-20.8c0-1.2 0.8-2 2.1-2 1.2 0 2.1 0.8 2.1 2zm124.8 20.8c0 1.2-0.8 2.1-2.1 2.1h-3.9c-5.8 0-10.6-5-10.6-11v-20.2c0-1.2 0.8-2 2.1-2 1.2 0 2 0.8 2 2v6.3h6.3c1.2 0 2.1 0.8 2.1 2 0 1.3-0.9 2.1-2.1 2.1h-6.3v9.8c0 3.7 3 6.8 6.5 6.8h3.9c1.3 0 2.1 0.8 2.1 2.1zm25-20.8v20.8c0 1.2-0.8 2.1-2.1 2.1-1.2 0-2.1-0.9-2.1-2.1v-1.1c-2.2 1.9-5.2 3.2-8.3 3.2-6.8 0-12.5-5.7-12.5-12.5 0-6.8 5.7-12.4 12.5-12.4 3.1 0 6.1 1 8.3 3.1v-1.1c0-1.2 0.9-2 2.1-2 1.3 0 2.1 0.8 2.1 2zm-4.2 10.4c0-4.6-3.7-8.3-8.3-8.3-4.6 0-8.3 3.7-8.3 8.3 0 4.6 3.7 8.3 8.3 8.3 4.6 0 8.3-3.7 8.3-8.3zm-55.7-5.2c0.2 1 0.8 1.9 2 2.3l6.7 2.1c2.7 0.8 4.8 3.1 5 5.8 0.2 2.7-1 5.2-3.5 6.4-1.5 0.8-3.4 1.3-5.2 1.3-4.2 0-7.3-1.3-9-4-0.6-1-0.4-2.3 0.6-2.9 1.1-0.6 2.3-0.4 3 0.6 1 1.3 2.9 2.1 5.6 2.1 1.2 0 2.3-0.2 3.3-0.8 1.2-0.6 1.2-1.9 1.2-2.3-0.2-0.8-0.8-1.9-2-2.3l-6.7-2.1c-2.9-0.8-4.8-3.1-5-5.8-0.2-2.7 1.3-5.2 3.8-6.4 1.6-0.8 3.3-1.2 5.2-1.2 4.1 0 7.2 1.2 8.9 3.9 0.6 1 0.4 2.3-0.6 2.9-1.1 0.6-2.3 0.4-2.9-0.6-1.1-1.3-2.9-2.1-5.6-2.1-1.1 0-2.1 0.4-3.2 0.8-1.4 0.7-1.6 1.9-1.6 2.3zm-33.8 5.2c0 1.2-0.8 2.1-2 2.1h-18.6c1.1 3.5 4.2 6.2 8.2 6.2 2.5 0 4.5-1 6.2-2.7 0.8-0.8 2.1-1 2.9-0.2 0.9 0.8 1.1 2.1 0.2 2.9-2.5 2.7-5.8 4.2-9.3 4.2-6.9 0-12.5-5.7-12.5-12.5 0-6.8 5.6-12.4 12.5-12.4 6.4 0 11.8 4.9 12.4 11.4zm-4.3-2.1c-1.1-3.5-4.2-6.2-8.1-6.2-4 0-7.3 2.7-8.2 6.2zm-51.8-16.6c0 1.2-0.8 2.1-2.1 2.1-1.2 0-2-0.9-2-2.1 0-1.3 0.8-2.1 2-2.1 1.3 0 2.1 0.8 2.1 2.1zm27.1 16.8v12.2c0 1.3-0.9 2.1-2.1 2.1-1.3 0-2.1-0.8-2.1-2.1v-12.2c0-3.5-2.7-6.4-6.2-6.4-3.6 0-6.3 2.9-6.3 6.4v12.2c0 1.3-0.8 2.1-2.1 2.1-1.2 0-2-0.8-2-2.1v-12.2c0-5.8 4.5-10.6 10.4-10.6 5.8 0 10.4 4.8 10.4 10.6zm145.7 12.2c0 1.3-0.9 2.1-2.1 2.1h-4c-5.8 0-10.6-5-10.6-11v-20.1c0-1.3 0.8-2.1 2.1-2.1 1.2 0 2.1 0.8 2.1 2.1v6.2h6.2c1.3 0 2.1 0.8 2.1 2.1 0 1.2-0.8 2.1-2.1 2.1h-6.2v9.7c0 3.8 2.9 6.9 6.4 6.9h4c1.2 0 2.1 0.8 2.1 2z"/></svg>